<?xml version="1.0" standalone="no"?>
<!DOCTYPE svg PUBLIC "-//W3C//DTD SVG 20010904//EN"
 "http://www.w3.org/TR/2001/REC-SVG-20010904/DTD/svg10.dtd">
<svg version="1.0" xmlns="http://www.w3.org/2000/svg"
 width="700.000000pt" height="700.000000pt" viewBox="0 0 700.000000 700.000000"
 preserveAspectRatio="xMidYMid meet">
<metadata>
Created by potrace 1.11, written by Peter Selinger 2001-2013
</metadata>
<g transform="translate(0.000000,700.000000) scale(0.100000,-0.100000)"
fill="#000000" stroke="none">
<path d="M4400 5270 c-67 -12 -106 -47 -134 -120 -61 -158 -184 -282 -328
-331 -178 -60 -377 11 -512 181 -23 29 -86 150 -86 167 0 18 -49 72 -81 88
-32 17 -96 19 -134 5 -28 -11 -85 -68 -85 -85 0 -5 -14 -39 -31 -75 -85 -181
-257 -301 -429 -301 -88 1 -114 6 -195 45 -122 58 -209 154 -270 299 -42 102
-90 135 -180 125 -62 -7 -103 -41 -132 -107 -38 -89 -46 -103 -84 -156 -96
-132 -234 -206 -387 -207 -172 -1 -303 83 -383 248 -21 44 -39 85 -39 90 0 16
-44 61 -77 78 -114 58 -249 -53 -215 -179 19 -70 77 -189 124 -252 143 -195
318 -285 572 -297 209 -9 430 85 584 248 29 31 55 56 57 56 2 0 28 -25 57 -56
143 -152 347 -244 543 -247 136 -1 230 20 349 79 95 48 144 83 219 160 l65 66
54 -54 c103 -105 199 -168 314 -209 68 -24 71 -24 144 -35 97 -14 181 -10 268
11 12 3 30 7 40 9 40 9 146 57 205 93 34 20 95 70 136 111 l74 73 66 -65 c80
-79 131 -117 220 -161 131 -66 292 -92 436 -71 159 22 303 96 425 216 l86 85
82 -82 c153 -153 331 -226 547 -226 320 1 577 188 696 507 35 95 16 161 -61
214 -46 31 -105 29 -157 -5 -23 -14 -46 -36 -51 -47 -82 -180 -117 -233 -193
-288 -93 -69 -257 -89 -379 -48 -139 47 -232 135 -313 300 -65 131 -93 154
-180 148 -36 -3 -67 -12 -85 -24 -26 -20 -36 -36 -96 -162 -63 -131 -193 -240
-327 -272 -158 -38 -315 14 -439 147 -53 56 -130 186 -130 219 0 21 -66 80
-102 90 -18 6 -49 7 -68 4z"/>
<path d="M1311 3889 c-57 -12 -84 -41 -136 -145 -60 -121 -115 -189 -197 -244
-87 -58 -178 -83 -276 -77 -99 6 -126 13 -185 45 -76 41 -133 105 -178 201
-63 133 -65 135 -106 158 -96 56 -215 -3 -230 -113 -5 -40 17 -116 60 -199 44
-86 77 -132 139 -196 109 -112 219 -169 398 -205 36 -7 199 -7 240 0 166 30
317 110 438 232 34 35 64 64 65 64 2 0 34 -31 72 -68 76 -74 132 -115 210
-155 211 -106 464 -106 673 1 75 38 190 127 237 182 l40 46 67 -68 c242 -245
578 -308 878 -165 79 38 167 103 238 177 l53 55 42 -45 c153 -166 362 -262
569 -262 92 1 127 5 208 28 136 39 242 104 350 213 l65 66 45 -49 c150 -163
359 -257 575 -258 327 -1 584 184 703 505 27 72 27 99 2 152 -53 110 -220 112
-272 3 -9 -18 -32 -67 -52 -108 -77 -159 -204 -239 -381 -241 -79 0 -146 19
-227 64 -91 51 -158 128 -221 256 -29 58 -64 113 -78 123 -53 40 -135 40 -188
1 -15 -11 -49 -66 -79 -127 -101 -204 -247 -309 -437 -315 -189 -6 -348 107
-457 325 -59 120 -87 144 -162 145 -81 2 -127 -35 -165 -128 -93 -226 -278
-355 -488 -340 -155 11 -288 98 -376 244 -19 32 -42 78 -51 103 -31 82 -86
123 -163 122 -81 -2 -120 -37 -163 -146 -45 -113 -151 -230 -253 -279 -78 -38
-121 -47 -217 -44 -75 3 -96 7 -162 39 -118 56 -214 160 -267 288 -13 30 -29
65 -37 77 -30 48 -102 75 -163 62z"/>
<path d="M1921 2510 c-58 -13 -84 -42 -138 -152 -109 -219 -276 -329 -481
-315 -180 12 -296 102 -373 289 -16 40 -37 80 -47 91 -44 49 -152 60 -204 21
-84 -63 -82 -163 4 -322 86 -157 185 -255 338 -329 76 -37 159 -55 285 -60
102 -5 134 -2 204 16 149 37 271 108 384 222 31 33 61 59 66 59 5 0 20 -15 34
-33 31 -41 146 -134 210 -171 234 -134 521 -128 764 15 31 19 94 70 140 114
l82 80 66 -67 c106 -108 232 -182 370 -217 65 -16 103 -20 200 -17 66 2 127 6
135 8 8 3 35 10 60 17 115 33 259 125 353 226 l49 52 56 -60 c123 -129 260
-202 454 -243 29 -6 186 -6 216 0 187 38 346 125 462 253 l45 49 66 -65 c36
-36 72 -71 80 -76 65 -47 86 -60 123 -80 49 -26 154 -64 194 -71 15 -2 37 -7
50 -9 64 -15 223 -5 317 20 218 57 406 237 490 470 29 82 30 101 10 153 -24
60 -68 87 -140 87 -66 0 -111 -23 -132 -67 -79 -165 -99 -200 -136 -237 -80
-82 -173 -119 -297 -119 -192 0 -354 111 -449 307 -11 25 -21 49 -21 54 0 6
-12 26 -26 45 -59 76 -164 87 -237 24 -10 -9 -40 -62 -68 -119 -39 -81 -63
-118 -112 -166 -155 -155 -348 -188 -537 -92 -80 41 -177 144 -223 237 -20 42
-37 80 -37 83 0 17 -45 67 -72 81 -48 25 -119 22 -159 -7 -45 -31 -53 -42 -84
-118 -116 -283 -418 -411 -656 -278 -120 68 -182 142 -263 319 -33 69 -79 102
-146 101 -82 0 -128 -38 -163 -134 -37 -98 -121 -203 -211 -263 -80 -53 -165
-77 -261 -72 -188 9 -330 113 -426 313 -66 137 -116 173 -208 153z"/>
</g>
</svg>
