<svg id="Layer_1" height="512" viewBox="0 0 512 512" width="512" xmlns="http://www.w3.org/2000/svg" data-name="Layer 1"><path d="m327.83 208.38 44.06 69.62 129.11-29.955z" fill="#adb3bc"/><path d="m11 248.045 129.11 29.955 44.06-69.62z" fill="#adb3bc"/><path d="m256 304.02 160.01 108.98 84.99-164.955z" fill="#b9c0c9"/><path d="m416.01 413h-320.02l160.01-108.98z" fill="#ccd3df"/><path d="m372.89 277-55.7-84.82-178.08 84.82-.1.46 116.99 26.56 116.99-26.56z" fill="#c5cad1"/><path d="m256 99-116.89 178 178.08-84.82z" fill="#dfe4ea"/><path d="m139.11 277-.1.46 25.462 5.781 18.292-27.034z" fill="#8d9299"/><path d="m271 121.842-15-22.842-116.89 178 43.654-20.793z" fill="#b4babf"/><path d="m11 248.045 84.99 164.955 160.01-108.98z" fill="#dfe4ea"/><path d="m45.003 255.814-34.003-7.769 84.99 164.955 22.207-15.125z" fill="#b4babf"/><g fill="#284268"><path d="m502.329 241.852-170.812-38.788-70.5-107.358a6 6 0 0 0 -10.032 0l-70.5 107.358-170.814 38.788a6 6 0 0 0 -4.671 5.848v.687a5.967 5.967 0 0 0 .68 2.746l-.011.006 84.986 164.614a6 6 0 0 0 5.331 3.247h320.028a6 6 0 0 0 5.331-3.247l84.986-164.611-.011-.006a5.967 5.967 0 0 0 .68-2.746v-.69a6 6 0 0 0 -4.671-5.848zm-26.912 6.194-99.52 22.6-34.883-53.12zm-112.017 25.437-107.4 24.389-99.381-22.567 158.428-75.459zm-107.4-163.553 52.4 79.791-152.495 72.632zm-85.014 107.6-34.886 53.116-99.52-22.6zm-148.739 39.57 218.984 49.727-143.022 97.4zm93.208 149.9 140.545-95.717 140.545 95.717zm298.336-2.772-143.022-97.4 218.984-49.728z"/><path d="m172.608 385h-2.208a6 6 0 1 0 0 12h2.212a6 6 0 0 0 0-12z"/><path d="m188.779 391a6 6 0 0 0 6 6h89.358a6 6 0 0 0 0-12h-89.358a6 6 0 0 0 -6 6z"/></g></svg>