<?xml version="1.0" standalone="no"?>
<!DOCTYPE svg PUBLIC "-//W3C//DTD SVG 20010904//EN"
 "http://www.w3.org/TR/2001/REC-SVG-20010904/DTD/svg10.dtd">
<svg version="1.0" xmlns="http://www.w3.org/2000/svg"
 width="700.000000pt" height="700.000000pt" viewBox="0 0 700.000000 700.000000"
 preserveAspectRatio="xMidYMid meet">
<metadata>
Created by potrace 1.11, written by Peter Selinger 2001-2013
</metadata>
<g transform="translate(0.000000,700.000000) scale(0.100000,-0.100000)"
fill="#000000" stroke="none">
<path d="M3463 5718 c-20 -10 -64 -73 -358 -523 -662 -1011 -637 -973 -670
-979 -33 -7 -65 -14 -92 -20 -10 -3 -72 -16 -138 -31 -66 -14 -156 -35 -200
-45 -44 -11 -91 -22 -105 -24 -24 -5 -509 -116 -690 -158 -47 -11 -98 -22
-115 -24 -16 -3 -52 -11 -80 -19 -27 -8 -61 -16 -75 -19 -27 -5 -73 -15 -455
-101 -342 -77 -367 -84 -393 -108 -37 -35 -29 -73 49 -224 123 -237 223 -432
314 -608 48 -93 115 -224 150 -290 80 -154 197 -380 320 -620 54 -104 126
-244 160 -310 34 -66 86 -166 114 -221 34 -65 61 -105 76 -112 33 -15 4414
-16 4448 -1 25 11 28 16 197 344 51 99 121 234 155 300 34 66 106 206 160 310
54 105 126 244 160 310 34 66 104 201 155 300 94 184 182 353 309 597 109 210
103 228 -99 277 -69 16 -137 32 -152 35 -16 3 -40 9 -55 12 -15 3 -66 14 -113
25 -47 11 -94 22 -105 24 -22 5 -115 26 -240 55 -132 31 -578 132 -605 136
-14 3 -61 14 -105 24 -44 10 -96 22 -115 26 -19 4 -39 9 -45 10 -38 10 -375
87 -395 90 -14 3 -43 10 -65 16 -22 5 -47 11 -55 13 -152 29 -177 38 -197 69
-19 28 -81 123 -428 651 -65 99 -152 232 -194 295 -42 63 -78 120 -81 125 -3
6 -60 94 -128 196 -137 207 -158 226 -219 197z"/>
</g>
</svg>
